<svg width="60" height="60" viewBox="0 0 60 60" xmlns="http://www.w3.org/2000/svg" role="img">
  <title>EQUAL Day</title>
  <desc>EQUAL Day logo</desc>
  <path d="M.137.185v59.563H26.61V47.694H12.515V36.348h8.367l6.857-12.054H12.515v-12.34L.137.184z" fill="#E86B1D"/>
  <path d="M59.863 29.967C59.863 13.572 46.259.274 29.446.189V.185H5.136l2.586 2.517h21.561c15.436 0 27.995 12.231 27.995 27.265 0 14.78-12.138 26.85-27.216 27.253v2.519c16.529-.403 29.8-13.578 29.8-29.772z" fill="#F3F2F2"/>
  <path d="M50.216 29.966c0-11.188-9.303-20.296-20.77-20.382V9.58H15.002l2.584 2.517h11.697c10.133 0 18.348 8 18.348 17.87 0 9.614-7.797 17.452-17.569 17.85v2.517c11.182-.401 20.154-9.38 20.154-20.368z" fill="#F3F2F2"/>
</svg>
