<svg width="42" height="42" viewBox="0 0 42 42" fill="none" xmlns="http://www.w3.org/2000/svg"><circle cx="21" cy="21" r="20" stroke="#5B5B5B" stroke-width="2"/><path d="M27 17.279a4.915 4.915 0 0 1-1.414.387 2.466 2.466 0 0 0 1.083-1.362 4.932 4.932 0 0 1-1.564.598 2.464 2.464 0 0 0-4.195 2.245 6.99 6.99 0 0 1-5.075-2.572 2.465 2.465 0 0 0 .762 3.287 2.451 2.451 0 0 1-1.115-.308 2.464 2.464 0 0 0 1.975 2.445 2.468 2.468 0 0 1-1.112.042 2.464 2.464 0 0 0 2.3 1.709A4.95 4.95 0 0 1 15 24.77a6.97 6.97 0 0 0 3.774 1.106c4.571 0 7.153-3.86 6.997-7.323A5.012 5.012 0 0 0 27 17.279z" fill="#DCDCDC"/></svg>